<svg width="185" height="144" viewBox="0 0 185 144" fill="none" xmlns="http://www.w3.org/2000/svg">
<path d="M54 0.199989C67.2 0.199989 77.6667 2.53332 85.4 7.19999C93.2667 11.8667 98.8667 19.4667 102.2 30C105.667 40.4 107.4 54.4 107.4 72C107.4 89.6 105.667 103.667 102.2 114.2C98.8667 124.6 93.2667 132.133 85.4 136.8C77.6667 141.333 67.2 143.6 54 143.6C40.8 143.6 30.2667 141.333 22.4 136.8C14.6667 132.133 9.13333 124.6 5.8 114.2C2.46667 103.667 0.8 89.6 0.8 72C0.8 54.4 2.46667 40.4 5.8 30C9.13333 19.4667 14.6667 11.8667 22.4 7.19999C30.2667 2.53332 40.8 0.199989 54 0.199989ZM53.8 24C47.9333 24 43.3333 25.4 40 28.2C36.6667 30.8667 34.3333 35.6667 33 42.6C31.6667 49.4 31 59.2 31 72C31 84.8 31.6667 94.6667 33 101.6C34.3333 108.4 36.6667 113.133 40 115.8C43.3333 118.467 47.9333 119.8 53.8 119.8C59.8 119.8 64.4667 118.467 67.8 115.8C71.2667 113.133 73.6667 108.4 75 101.6C76.4667 94.6667 77.2 84.8 77.2 72C77.2 59.2 76.4667 49.4 75 42.6C73.6667 35.6667 71.2667 30.8667 67.8 28.2C64.4667 25.4 59.8 24 53.8 24ZM184.977 2.99999V141H154.577V43C154.577 40.6 154.643 38.2 154.777 35.8C154.91 33.2667 155.31 30.7333 155.977 28.2L123.177 36.6L119.377 16.8L154.577 2.99999H184.977Z" fill="#0428A8" fill-opacity="0.1"/>
</svg>
