<svg width="225" height="144" viewBox="0 0 225 144" fill="none" xmlns="http://www.w3.org/2000/svg">
<path d="M54 0.199989C67.2 0.199989 77.6667 2.53332 85.4 7.19999C93.2667 11.8667 98.8667 19.4667 102.2 30C105.667 40.4 107.4 54.4 107.4 72C107.4 89.6 105.667 103.667 102.2 114.2C98.8667 124.6 93.2667 132.133 85.4 136.8C77.6667 141.333 67.2 143.6 54 143.6C40.8 143.6 30.2667 141.333 22.4 136.8C14.6667 132.133 9.13333 124.6 5.8 114.2C2.46667 103.667 0.8 89.6 0.8 72C0.8 54.4 2.46667 40.4 5.8 30C9.13333 19.4667 14.6667 11.8667 22.4 7.19999C30.2667 2.53332 40.8 0.199989 54 0.199989ZM53.8 24C47.9333 24 43.3333 25.4 40 28.2C36.6667 30.8667 34.3333 35.6667 33 42.6C31.6667 49.4 31 59.2 31 72C31 84.8 31.6667 94.6667 33 101.6C34.3333 108.4 36.6667 113.133 40 115.8C43.3333 118.467 47.9333 119.8 53.8 119.8C59.8 119.8 64.4667 118.467 67.8 115.8C71.2667 113.133 73.6667 108.4 75 101.6C76.4667 94.6667 77.2 84.8 77.2 72C77.2 59.2 76.4667 49.4 75 42.6C73.6667 35.6667 71.2667 30.8667 67.8 28.2C64.4667 25.4 59.8 24 53.8 24ZM173.777 0.599996C183.243 0.599996 191.443 1.46666 198.377 3.2C205.443 4.79999 210.91 7.93333 214.777 12.6C218.643 17.2667 220.577 23.9333 220.577 32.6C220.577 37.9333 219.91 42.8667 218.577 47.4C217.377 51.8 215.11 56.4 211.777 61.2C208.577 66 203.91 71.6667 197.777 78.2L161.577 115.6C164.91 115.067 168.243 114.733 171.577 114.6C175.043 114.333 178.51 114.2 181.977 114.2H224.577V141H125.777V124.6C125.777 122.2 126.11 120 126.777 118C127.443 116 128.577 114.067 130.177 112.2L164.577 75.4C172.71 67 178.91 59.5333 183.177 53C187.443 46.4667 189.51 40.7333 189.377 35.8C189.243 31.5333 187.577 28.8667 184.377 27.8C181.31 26.7333 176.643 26.2 170.377 26.2C165.71 26.2 161.31 26.2667 157.177 26.4C153.177 26.5333 148.91 26.7333 144.377 27C139.843 27.1333 134.51 27.4667 128.377 28L126.977 5.39999C136.843 3.4 145.31 2.13333 152.377 1.59999C159.577 0.933329 166.71 0.599996 173.777 0.599996Z" fill="#0428A8" fill-opacity="0.1"/>
</svg>
