<svg width="221" height="144" viewBox="0 0 221 144" fill="none" xmlns="http://www.w3.org/2000/svg">
<path d="M54 0.199989C67.2 0.199989 77.6667 2.53332 85.4 7.19999C93.2667 11.8667 98.8667 19.4667 102.2 30C105.667 40.4 107.4 54.4 107.4 72C107.4 89.6 105.667 103.667 102.2 114.2C98.8667 124.6 93.2667 132.133 85.4 136.8C77.6667 141.333 67.2 143.6 54 143.6C40.8 143.6 30.2667 141.333 22.4 136.8C14.6667 132.133 9.13333 124.6 5.8 114.2C2.46667 103.667 0.8 89.6 0.8 72C0.8 54.4 2.46667 40.4 5.8 30C9.13333 19.4667 14.6667 11.8667 22.4 7.19999C30.2667 2.53332 40.8 0.199989 54 0.199989ZM53.8 24C47.9333 24 43.3333 25.4 40 28.2C36.6667 30.8667 34.3333 35.6667 33 42.6C31.6667 49.4 31 59.2 31 72C31 84.8 31.6667 94.6667 33 101.6C34.3333 108.4 36.6667 113.133 40 115.8C43.3333 118.467 47.9333 119.8 53.8 119.8C59.8 119.8 64.4667 118.467 67.8 115.8C71.2667 113.133 73.6667 108.4 75 101.6C76.4667 94.6667 77.2 84.8 77.2 72C77.2 59.2 76.4667 49.4 75 42.6C73.6667 35.6667 71.2667 30.8667 67.8 28.2C64.4667 25.4 59.8 24 53.8 24ZM171.377 0.199989C182.31 0.199989 191.043 1.19999 197.577 3.2C204.243 5.2 209.043 8.53333 211.977 13.2C215.043 17.8667 216.577 24.2667 216.577 32.4C216.577 42 215.11 49.8667 212.177 56C209.377 62 203.71 65.7333 195.177 67.2V68C204.643 69.4667 211.11 73.0667 214.577 78.8C218.177 84.5333 220.11 92.4667 220.377 102.6C220.51 117 216.977 127.467 209.777 134C202.71 140.4 190.377 143.6 172.777 143.6C164.777 143.6 156.71 143.267 148.577 142.6C140.443 141.933 132.577 141.067 124.977 140L126.177 117.6C134.177 118.133 140.977 118.533 146.577 118.8C152.31 119.067 158.31 119.2 164.577 119.2C174.177 119.2 180.843 117.867 184.577 115.2C188.31 112.4 190.177 106.867 190.177 98.6C190.177 92.2 188.777 87.3333 185.977 84C183.31 80.6667 177.577 79 168.777 79L142.777 79.2V59.2H168.777C174.643 59.2 178.91 58.4 181.577 56.8C184.377 55.0667 186.11 52.8 186.777 50C187.577 47.0667 187.977 43.8667 187.977 40.4C187.977 36 187.31 32.6667 185.977 30.4C184.643 28.1333 182.377 26.6 179.177 25.8C176.11 25 171.777 24.6 166.177 24.6C159.243 24.6 152.51 24.6667 145.977 24.8C139.577 24.9333 133.91 25.1333 128.977 25.4L127.777 3.99999C142.443 1.46666 156.977 0.199989 171.377 0.199989Z" fill="#0428A8" fill-opacity="0.1"/>
</svg>
