<svg width="23" height="23" viewBox="0 0 23 23" fill="none" xmlns="http://www.w3.org/2000/svg">
<path d="M12.1765 5.87997V10.776L12.0485 13.624H10.9605L10.8165 10.776V5.87997H12.1765ZM11.6805 15.112C11.8618 15.112 11.9898 15.1493 12.0645 15.224C12.1498 15.2986 12.1925 15.432 12.1925 15.624V16.488C12.1925 16.68 12.1498 16.8133 12.0645 16.888C11.9898 16.9626 11.8618 17 11.6805 17H11.3285C11.1472 17 11.0192 16.9626 10.9445 16.888C10.8698 16.8133 10.8325 16.68 10.8325 16.488V15.624C10.8325 15.432 10.8698 15.2986 10.9445 15.224C11.0192 15.1493 11.1472 15.112 11.3285 15.112H11.6805Z" fill="#FF4141"/>
<circle cx="11.5" cy="11.5" r="11.35" stroke="#FF4141" stroke-width="0.3"/>
</svg>
